<mxfile host="app.diagrams.net" agent="Mozilla/5.0 (Macintosh; Intel Mac OS X 10_15_7) AppleWebKit/537.36 (KHTML, like Gecko) Chrome/137.0.0.0 Safari/537.36" version="27.1.3">
  <diagram name="Страница — 1" id="3dk12ROXga-FwwX1z0HT">
    <mxGraphModel dx="2100" dy="1988" grid="1" gridSize="10" guides="1" tooltips="1" connect="1" arrows="1" fold="1" page="1" pageScale="1" pageWidth="827" pageHeight="1169" math="0" shadow="0">
      <root>
        <mxCell id="0" />
        <mxCell id="1" parent="0" />
        <mxCell id="SwD8MoQJ3_cfB6k_kaQL-12" value="" style="rounded=1;whiteSpace=wrap;html=1;" parent="1" vertex="1">
          <mxGeometry x="-330" y="-910" width="350" height="310" as="geometry" />
        </mxCell>
        <mxCell id="SwD8MoQJ3_cfB6k_kaQL-1" value="1.1.1.1" style="sketch=0;pointerEvents=1;shadow=0;dashed=0;html=1;strokeColor=none;fillColor=#005F4B;labelPosition=center;verticalLabelPosition=bottom;verticalAlign=top;align=center;outlineConnect=0;shape=mxgraph.veeam2.cloud_repository;" parent="1" vertex="1">
          <mxGeometry x="-736.5" y="-830" width="37" height="38" as="geometry" />
        </mxCell>
        <mxCell id="SwD8MoQJ3_cfB6k_kaQL-2" value="WireGuardVpnClient&lt;br&gt;10.13.13.2" style="sketch=0;pointerEvents=1;shadow=0;dashed=0;html=1;strokeColor=none;fillColor=#DF8C42;labelPosition=center;verticalLabelPosition=bottom;verticalAlign=top;align=center;outlineConnect=0;shape=mxgraph.veeam2.wireguard;" parent="1" vertex="1">
          <mxGeometry x="-736.5" y="-676" width="34" height="34" as="geometry" />
        </mxCell>
        <mxCell id="SwD8MoQJ3_cfB6k_kaQL-4" value="WireGuardVpnServer&lt;br&gt;10.13.13.1" style="sketch=0;pointerEvents=1;shadow=0;dashed=0;html=1;strokeColor=none;fillColor=#DF8C42;labelPosition=center;verticalLabelPosition=bottom;verticalAlign=top;align=center;outlineConnect=0;shape=mxgraph.veeam2.wireguard;" parent="1" vertex="1">
          <mxGeometry x="-180" y="-676" width="34" height="34" as="geometry" />
        </mxCell>
        <mxCell id="SwD8MoQJ3_cfB6k_kaQL-7" value="" style="endArrow=classic;startArrow=classic;html=1;rounded=0;" parent="1" source="SwD8MoQJ3_cfB6k_kaQL-2" target="SwD8MoQJ3_cfB6k_kaQL-1" edge="1">
          <mxGeometry width="50" height="50" relative="1" as="geometry">
            <mxPoint x="-642.5" y="-620" as="sourcePoint" />
            <mxPoint x="-702.5" y="-710" as="targetPoint" />
          </mxGeometry>
        </mxCell>
        <mxCell id="SwD8MoQJ3_cfB6k_kaQL-8" value="open 51820:51820/upd&lt;br&gt;open 25:25/tcp" style="image;sketch=0;aspect=fixed;html=1;points=[];align=center;fontSize=12;image=img/lib/mscae/Docker.svg;" parent="1" vertex="1">
          <mxGeometry x="-188" y="-775.5" width="50" height="41" as="geometry" />
        </mxCell>
        <mxCell id="SwD8MoQJ3_cfB6k_kaQL-9" value="" style="endArrow=classic;startArrow=classic;html=1;rounded=0;entryX=0.529;entryY=0.961;entryDx=0;entryDy=0;entryPerimeter=0;" parent="1" source="SwD8MoQJ3_cfB6k_kaQL-4" target="SwD8MoQJ3_cfB6k_kaQL-8" edge="1">
          <mxGeometry width="50" height="50" relative="1" as="geometry">
            <mxPoint x="-310" y="-670" as="sourcePoint" />
            <mxPoint x="-260" y="-720" as="targetPoint" />
          </mxGeometry>
        </mxCell>
        <mxCell id="SwD8MoQJ3_cfB6k_kaQL-10" value="192.168.1.134" style="image;html=1;image=img/lib/clip_art/computers/MacBook_128x128.png" parent="1" vertex="1">
          <mxGeometry x="-203" y="-900" width="80" height="80" as="geometry" />
        </mxCell>
        <mxCell id="SwD8MoQJ3_cfB6k_kaQL-11" value="2.2.2.2" style="image;html=1;image=img/lib/clip_art/networking/Wireless_Router_128x128.png" parent="1" vertex="1">
          <mxGeometry x="-203" y="-1060" width="80" height="80" as="geometry" />
        </mxCell>
        <mxCell id="SwD8MoQJ3_cfB6k_kaQL-13" value="" style="endArrow=classic;startArrow=classic;html=1;rounded=0;entryX=0.5;entryY=1;entryDx=0;entryDy=0;" parent="1" source="SwD8MoQJ3_cfB6k_kaQL-10" target="SwD8MoQJ3_cfB6k_kaQL-11" edge="1">
          <mxGeometry width="50" height="50" relative="1" as="geometry">
            <mxPoint x="-170" y="-890" as="sourcePoint" />
            <mxPoint x="-120" y="-860" as="targetPoint" />
          </mxGeometry>
        </mxCell>
        <mxCell id="yxEHAcjae-LBAb1MY1R0-2" value="udp 51820 to&amp;nbsp;192.168.1.134&amp;nbsp;&lt;div&gt;tcp 25,465,587 192.168.1.134&lt;/div&gt;&lt;div&gt;&amp;nbsp;&lt;/div&gt;" style="text;html=1;align=center;verticalAlign=middle;whiteSpace=wrap;rounded=0;" parent="1" vertex="1">
          <mxGeometry x="-254.5" y="-1090" width="183" height="30" as="geometry" />
        </mxCell>
        <mxCell id="yxEHAcjae-LBAb1MY1R0-3" value="Internet" style="image;aspect=fixed;perimeter=ellipsePerimeter;html=1;align=center;shadow=0;dashed=0;spacingTop=3;image=img/lib/active_directory/internet_globe.svg;" parent="1" vertex="1">
          <mxGeometry x="-793" y="-1100" width="150" height="150" as="geometry" />
        </mxCell>
        <mxCell id="yxEHAcjae-LBAb1MY1R0-4" value="" style="endArrow=classic;startArrow=classic;html=1;rounded=0;entryX=0.5;entryY=1;entryDx=0;entryDy=0;" parent="1" source="SwD8MoQJ3_cfB6k_kaQL-1" target="yxEHAcjae-LBAb1MY1R0-3" edge="1">
          <mxGeometry width="50" height="50" relative="1" as="geometry">
            <mxPoint x="-742.5" y="-830" as="sourcePoint" />
            <mxPoint x="-692.5" y="-880" as="targetPoint" />
          </mxGeometry>
        </mxCell>
        <mxCell id="yxEHAcjae-LBAb1MY1R0-7" value="" style="shape=image;html=1;verticalAlign=top;verticalLabelPosition=bottom;labelBackgroundColor=#ffffff;imageAspect=0;aspect=fixed;image=https://cdn4.iconfinder.com/data/icons/essentials-72/24/039_-_Cross-128.png" parent="1" vertex="1">
          <mxGeometry x="-737.5" y="-910" width="37" height="37" as="geometry" />
        </mxCell>
        <mxCell id="yxEHAcjae-LBAb1MY1R0-9" value="&lt;span style=&quot;font-weight: normal;&quot;&gt;&lt;font style=&quot;font-size: 12px;&quot;&gt;block out 25 smtp&lt;/font&gt;&lt;/span&gt;" style="text;strokeColor=none;fillColor=none;html=1;fontSize=24;fontStyle=1;verticalAlign=middle;align=left;" parent="1" vertex="1">
          <mxGeometry x="-696.5" y="-914" width="100" height="40" as="geometry" />
        </mxCell>
        <mxCell id="yxEHAcjae-LBAb1MY1R0-10" value="" style="endArrow=classic;startArrow=classic;html=1;rounded=0;" parent="1" source="SwD8MoQJ3_cfB6k_kaQL-2" edge="1">
          <mxGeometry width="50" height="50" relative="1" as="geometry">
            <mxPoint x="-552.5" y="-620" as="sourcePoint" />
            <mxPoint x="-202.5" y="-990" as="targetPoint" />
          </mxGeometry>
        </mxCell>
        <mxCell id="yxEHAcjae-LBAb1MY1R0-11" value="" style="endArrow=classic;startArrow=classic;html=1;rounded=0;entryX=0.5;entryY=1;entryDx=0;entryDy=0;" parent="1" source="SwD8MoQJ3_cfB6k_kaQL-8" target="SwD8MoQJ3_cfB6k_kaQL-10" edge="1">
          <mxGeometry width="50" height="50" relative="1" as="geometry">
            <mxPoint x="-210" y="-760" as="sourcePoint" />
            <mxPoint x="-160" y="-810" as="targetPoint" />
          </mxGeometry>
        </mxCell>
        <mxCell id="yxEHAcjae-LBAb1MY1R0-12" value="" style="endArrow=classic;startArrow=classic;html=1;rounded=0;exitX=0.997;exitY=0.657;exitDx=0;exitDy=0;exitPerimeter=0;" parent="1" source="yxEHAcjae-LBAb1MY1R0-3" edge="1">
          <mxGeometry width="50" height="50" relative="1" as="geometry">
            <mxPoint x="-452.5" y="-990" as="sourcePoint" />
            <mxPoint x="-202.5" y="-1000" as="targetPoint" />
          </mxGeometry>
        </mxCell>
        <mxCell id="yxEHAcjae-LBAb1MY1R0-13" value="" style="sketch=0;html=1;aspect=fixed;strokeColor=none;shadow=0;align=center;fillColor=#2D9C5E;verticalAlign=top;labelPosition=center;verticalLabelPosition=bottom;shape=mxgraph.gcp2.check" parent="1" vertex="1">
          <mxGeometry x="-733.5" y="-733" width="37.5" height="30" as="geometry" />
        </mxCell>
        <mxCell id="yxEHAcjae-LBAb1MY1R0-18" value="" style="endArrow=none;dashed=1;html=1;dashPattern=1 3;strokeWidth=2;rounded=0;" parent="1" source="SwD8MoQJ3_cfB6k_kaQL-2" target="SwD8MoQJ3_cfB6k_kaQL-4" edge="1">
          <mxGeometry width="50" height="50" relative="1" as="geometry">
            <mxPoint x="-552.5" y="-610" as="sourcePoint" />
            <mxPoint x="-502.5" y="-660" as="targetPoint" />
          </mxGeometry>
        </mxCell>
        <mxCell id="gE1kRKKG31VSupjP4WXK-1" value="&lt;span&gt;mail.example.com A&amp;nbsp;&amp;nbsp;&lt;span&gt;1.1.1.1&lt;br&gt;mx.example.com A 2.2.2.2&lt;br&gt;example.com MX mx.example.com&lt;/span&gt;&lt;/span&gt;" style="image;aspect=fixed;html=1;points=[];align=center;fontSize=12;image=img/lib/azure2/networking/DNS_Zones.svg;" parent="1" vertex="1">
          <mxGeometry x="-490" y="-1140" width="64" height="64" as="geometry" />
        </mxCell>
        <mxCell id="gE1kRKKG31VSupjP4WXK-2" value="&lt;span style=&quot;font-weight: normal;&quot;&gt;&lt;font style=&quot;font-size: 12px;&quot;&gt;UDP 58120 tunnel&lt;/font&gt;&lt;/span&gt;" style="text;strokeColor=none;fillColor=none;html=1;fontSize=24;fontStyle=1;verticalAlign=middle;align=left;rotation=-30;" parent="1" vertex="1">
          <mxGeometry x="-522.5" y="-874" width="100" height="40" as="geometry" />
        </mxCell>
      </root>
    </mxGraphModel>
  </diagram>
</mxfile>
